{"title":"Zero Dark Thirty 2012 DVDSCR Xvid Ac3-ADTRG","uid":7986043,"size":2556278784,"categoryP":"video","categoryS":"movies","magnet":"?xt=urn:btih:cafe778706e66d35fc521912d916b9349bd32c3a&amp;dn=Zero+Dark+Thirty+2012+DVDSCR+Xvid+Ac3-ADTRG&amp;tr=udp%3A%2F%2Ftracker.openbittorrent.com%3A80&amp;tr=udp%3A%2F%2Fopen.demonii.com%3A1337&amp;tr=udp%3A%2F%2Ftracker.coppersurfer.tk%3A6969&amp;tr=udp%3A%2F%2Fexodus.desync.com%3A6969","seeders":4,"leechers":0,"uploader":"HeroMaster","files":-1,"time":1357289937,"description":"Zero Dark Thirty 2012 DVDSCR Xvid Ac3-ADTRG\n\n\nGeneral\n\n &lt;a href=&quot;\nhttp://www.imdb.com/title/tt1790885/&quot; rel=&quot;nofollow&quot; target=&quot;_NEW&quot;&gt;\nhttp://www.imdb.com/title/tt1790885/&lt;/a&gt;\n\n\nZero Dark Thirty (2012)\n157 min  -  Action | Drama | History  -  25 January 2013 (UK)\nIMDB Rating 7.0\n\nA chronicle of the decade-long hunt for al-Qaeda terrorist leader Osama bin Laden after the September 2001 attacks, and his death at the hands of the Navy S.E.A.L. Team 6 in May, 2011\n\n\nGeneral\n\nComplete name                            :Zero.Dark.Thirty.2012.DVDSCR Xvid Ac3-ADTRG.avi\nSource                                  : Zero.Dark.Thirty.2012.DVDSCR.MKV  [Thanks]\nFormat                                   : AVI\nFormat/Info                              : Audio Video Interleave\nFormat profile                           : OpenDML\nFile size                                : 2.34 GiB\nDuration                                 : 2h 36mn\nOverall bit rate                         : 2 138 Kbps\nWriting application                      : VirtualDubMod 1.5.10.2 (build 2540/release)\nWriting library                          : VirtualDubMod build 2540/release\n\nVideo\n\nID                                       : 0\nFormat                                   : MPEG-4 Visual\nFormat profile                           : Advanced Simple@L5\nFormat settings, BVOP                    : 2\nFormat settings, QPel                    : No\nFormat settings, GMC                     : No warppoints\nFormat settings, Matrix                  : Default (H.263)\nMuxing mode                              : Packed bitstream\nCodec ID                                 : XVID\nCodec ID/Hint                            : XviD\nDuration                                 : 2h 36mn\nBit rate                                 : 1 676 Kbps\nWidth                                    : 720 pixels\nHeight                                   : 384 pixels\nDisplay aspect ratio                     : 1.875\nFrame rate                               : 29.970 fps\nColor space                              : YUV\nChroma subsampling                       : 4:2:0\nBit depth                                : 8 bits\nScan type                                : Progressive\nCompression mode                         : Lossy\nBits/(Pixel*Frame)                       : 0.202\nStream size                              : 1.84 GiB (78%)\nWriting library                          : XviD 64\n\nAudio\n\nID                                       : 1\nFormat                                   : AC-3\nFormat/Info                              : Audio Coding 3\nMode extension                           : CM (complete main)\nCodec ID                                 : 2000\nDuration                                 : 2h 36mn\nBit rate mode                            : Constant\nBit rate                                 : 448 Kbps\nChannel(s)                               : 2 channels\nChannel positions                        : Front: L R\nSampling rate                            : 48.0 KHz\nBit depth                                : 16 bits\nCompression mode                         : Lossy\nStream size                              : 503 MiB (21%)\nAlignment                                : Split accross interleaves\nInterleave, duration                     : 33 ms (1.00 video frame)\nInterleave, preload duration             : 500 ms\n\n\nPoster:\n\n &lt;a href=&quot;\nhttp://imgon.net/di-KRJC.jpg&quot; rel=&quot;nofollow&quot; target=&quot;_NEW&quot;&gt;\nhttp://imgon.net/di-KRJC.jpg&lt;/a&gt;\n\n\nScreenshots:\n\n &lt;a href=&quot;\nhttp://imgon.net/di-H9YV.jpg&quot; rel=&quot;nofollow&quot; target=&quot;_NEW&quot;&gt;\nhttp://imgon.net/di-H9YV.jpg&lt;/a&gt;\n\n\nSEED AND ENJOY!","torrent":{"xt":"urn:btih:cafe778706e66d35fc521912d916b9349bd32c3a","amp;dn":"Zero+Dark+Thirty+2012+DVDSCR+Xvid+Ac3-ADTRG","amp;tr":["udp%3A%2F%2Ftracker.openbittorrent.com%3A80","udp%3A%2F%2Fopen.demonii.com%3A1337","udp%3A%2F%2Ftracker.coppersurfer.tk%3A6969","udp%3A%2F%2Fexodus.desync.com%3A6969"],"infoHash":"cafe778706e66d35fc521912d916b9349bd32c3a","infoHashBuffer":{"type":"Buffer","data":[202,254,119,135,6,230,109,53,252,82,25,18,217,22,185,52,155,211,44,58]},"announce":[],"urlList":[]}}